<svg xmlns="http://www.w3.org/2000/svg" width="600" height="500" viewBox="0 0 600 500" style="background-color:#0F1729"><rect x="0" y="0" width="600" height="500" fill="#0F1729"/><defs><marker id="arrow" markerWidth="8" markerHeight="8" refX="4" refY="4" orient="auto"><path d="M0,0 L8,4 L0,8 Z" fill="#73B6E6"/></marker></defs><g fill="none" stroke="#D9E5F5" stroke-width="1.8" stroke-linecap="round"><line x1="192" y1="70" x2="192" y2="430"/><line x1="408" y1="70" x2="408" y2="430"/><line x1="192" y1="70" x2="300" y2="250"/><line x1="408" y1="70" x2="300" y2="250"/><path d="M192 430 A108 108 0 0 1 300 322 A108 108 0 0 1 408 430"/></g><g fill="none" stroke="#73B6E6" stroke-width="1.2" stroke-linecap="round" stroke-dasharray="4 4"><line x1="300" y1="70" x2="300" y2="430"/><line x1="192" y1="70" x2="408" y2="70"/><line x1="300" y1="430" x2="408" y2="430"/><line x1="300" y1="430" x2="300" y2="322"/></g><g fill="none" stroke="#73B6E6" stroke-width="1.2" stroke-linecap="round"><line x1="192" y1="70" x2="125" y2="70"/><line x1="192" y1="430" x2="125" y2="430"/><line x1="125" y1="78" x2="125" y2="422" marker-start="url(#arrow)" marker-end="url(#arrow)"/><line x1="300" y1="70" x2="300" y2="45"/><line x1="408" y1="70" x2="408" y2="45"/><line x1="308" y1="45" x2="400" y2="45" marker-start="url(#arrow)" marker-end="url(#arrow)"/><line x1="408" y1="70" x2="465" y2="70"/><line x1="300" y1="250" x2="465" y2="250"/><line x1="465" y1="78" x2="465" y2="242" marker-start="url(#arrow)" marker-end="url(#arrow)"/></g><g fill="#D9E5F5" stroke="#D9E5F5" stroke-width="1.8"><circle cx="192" cy="70" r="3.5"/><circle cx="408" cy="70" r="3.5"/><circle cx="300" cy="250" r="3.5"/><circle cx="192" cy="430" r="3.5"/><circle cx="408" cy="430" r="3.5"/><circle cx="300" cy="430" r="3.5"/></g><g fill="#A6B7CC" stroke="#A6B7CC" stroke-width="1.8"><circle cx="300" cy="70" r="3.5"/><circle cx="300" cy="322" r="3.5"/></g><g font-family="Arial, Helvetica, sans-serif" font-size="14" fill="#EAF1FA" text-anchor="middle" dominant-baseline="central" paint-order="stroke fill" stroke="#0F1729" stroke-width="2" stroke-linejoin="round"><text x="180" y="55">A</text><text x="420" y="55">B</text><text x="300" y="268">V</text><text x="175" y="448">C</text><text x="425" y="448">D</text><text x="300" y="92">O₁</text><text x="300" y="452">O₂</text><text x="300" y="305">S</text></g><g font-family="Arial, Helvetica, sans-serif" font-size="12" fill="#EAF1FA" text-anchor="middle" dominant-baseline="central" paint-order="stroke fill" stroke="#0F1729" stroke-width="2" stroke-linejoin="round"><text x="105" y="250" transform="rotate(-90 105 250)">H = 10</text><text x="354" y="32">R = 3</text><text x="482" y="160" transform="rotate(-90 482 160)">H/2 = 5</text><text x="355" y="414">R = 3</text></g></svg>