<svg xmlns="http://www.w3.org/2000/svg" width="600" height="500" viewBox="0 0 600 500"><rect x="0" y="0" width="600" height="500" fill="#0F1729"/><circle cx="300" cy="250" r="190" fill="none" stroke="#B7A2E8" stroke-width="1.8"/><line x1="154.35" y1="372.13" x2="112.28" y2="217.04" stroke="#D9E5F5" stroke-width="1.8" stroke-linecap="round"/><line x1="112.28" y1="217.04" x2="411.00" y2="98.00" stroke="#D9E5F5" stroke-width="1.8" stroke-linecap="round"/><line x1="411.00" y1="98.00" x2="480.68" y2="308.74" stroke="#D9E5F5" stroke-width="1.8" stroke-linecap="round"/><line x1="480.68" y1="308.74" x2="154.35" y2="372.13" stroke="#D9E5F5" stroke-width="1.8" stroke-linecap="round"/><line x1="154.35" y1="372.13" x2="411.00" y2="98.00" stroke="#D9E5F5" stroke-width="1.8" stroke-linecap="round"/><line x1="112.28" y1="217.04" x2="480.68" y2="308.74" stroke="#D9E5F5" stroke-width="1.8" stroke-linecap="round"/><path d="M395.95 114.06 A22 22 0 0 0 390.56 106.14" fill="none" stroke="#A6B7CC" stroke-width="1.2"/><text x="377" y="119" fill="#EAF1FA" font-family="Arial, Helvetica, sans-serif" font-size="12" text-anchor="middle" dominant-baseline="central" paint-order="stroke fill" stroke="#0F1729" stroke-width="2" stroke-linejoin="round">25°</text><path d="M169.39 356.08 A22 22 0 0 1 175.93 367.93" fill="none" stroke="#A6B7CC" stroke-width="1.2"/><text x="179" y="348" fill="#EAF1FA" font-family="Arial, Helvetica, sans-serif" font-size="12" text-anchor="middle" dominant-baseline="central" paint-order="stroke fill" stroke="#0F1729" stroke-width="2" stroke-linejoin="round">36°</text><path d="M118.08 238.20 A22 22 0 0 0 133.98 223.10" fill="none" stroke="#A6B7CC" stroke-width="1.2"/><text x="128" y="248" fill="#EAF1FA" font-family="Arial, Helvetica, sans-serif" font-size="12" text-anchor="middle" dominant-baseline="central" paint-order="stroke fill" stroke="#0F1729" stroke-width="2" stroke-linejoin="round">61°</text><path d="M249.14 270.89 A22 22 0 0 0 243.00 249.58" fill="none" stroke="#A6B7CC" stroke-width="1.2"/><text x="229" y="276" fill="#EAF1FA" font-family="Arial, Helvetica, sans-serif" font-size="12" text-anchor="middle" dominant-baseline="central" paint-order="stroke fill" stroke="#0F1729" stroke-width="2" stroke-linejoin="round">?</text><circle cx="154.35" cy="372.13" r="3.5" fill="#D9E5F5" stroke="#D9E5F5" stroke-width="1.8"/><circle cx="112.28" cy="217.04" r="3.5" fill="#D9E5F5" stroke="#D9E5F5" stroke-width="1.8"/><circle cx="411.00" cy="98.00" r="3.5" fill="#D9E5F5" stroke="#D9E5F5" stroke-width="1.8"/><circle cx="480.68" cy="308.74" r="3.5" fill="#D9E5F5" stroke="#D9E5F5" stroke-width="1.8"/><circle cx="264.24" cy="254.90" r="3.5" fill="#A6B7CC" stroke="#A6B7CC" stroke-width="1.8"/><text x="135" y="394" fill="#EAF1FA" font-family="Arial, Helvetica, sans-serif" font-size="14" text-anchor="middle" dominant-baseline="central" paint-order="stroke fill" stroke="#0F1729" stroke-width="2" stroke-linejoin="round">A</text><text x="96" y="237" fill="#EAF1FA" font-family="Arial, Helvetica, sans-serif" font-size="14" text-anchor="middle" dominant-baseline="central" paint-order="stroke fill" stroke="#0F1729" stroke-width="2" stroke-linejoin="round">B</text><text x="433" y="89" fill="#EAF1FA" font-family="Arial, Helvetica, sans-serif" font-size="14" text-anchor="middle" dominant-baseline="central" paint-order="stroke fill" stroke="#0F1729" stroke-width="2" stroke-linejoin="round">C</text><text x="500" y="321" fill="#EAF1FA" font-family="Arial, Helvetica, sans-serif" font-size="14" text-anchor="middle" dominant-baseline="central" paint-order="stroke fill" stroke="#0F1729" stroke-width="2" stroke-linejoin="round">D</text><text x="278" y="243" fill="#EAF1FA" font-family="Arial, Helvetica, sans-serif" font-size="14" text-anchor="middle" dominant-baseline="central" paint-order="stroke fill" stroke="#0F1729" stroke-width="2" stroke-linejoin="round">P</text></svg>