<svg xmlns="http://www.w3.org/2000/svg" width="600" height="500" viewBox="0 0 600 500" style="background-color:#0F1729"><rect x="0" y="0" width="600" height="500" fill="#0F1729"/><g fill="none" stroke="#D9E5F5" stroke-width="1.8" stroke-linecap="round"><line x1="180" y1="360" x2="350" y2="360"/><line x1="350" y1="360" x2="420" y2="280"/><line x1="420" y1="280" x2="250" y2="280"/><line x1="250" y1="280" x2="180" y2="360"/><line x1="110" y1="210" x2="280" y2="210"/><line x1="280" y1="210" x2="350" y2="130"/><line x1="350" y1="130" x2="180" y2="130"/><line x1="180" y1="130" x2="110" y2="210"/><line x1="180" y1="360" x2="110" y2="210"/><line x1="350" y1="360" x2="280" y2="210"/><line x1="420" y1="280" x2="350" y2="130"/><line x1="250" y1="280" x2="180" y2="130"/></g><line x1="350" y1="360" x2="180" y2="130" stroke="#F6B44C" stroke-width="2.2" stroke-linecap="round"/><line x1="180" y1="360" x2="289.94" y2="278.74" stroke="#73B6E6" stroke-width="1.2" stroke-linecap="round" stroke-dasharray="4 4"/><polyline points="278.70,287.06 270.38,275.80 281.62,267.48" fill="none" stroke="#FFD166" stroke-width="1.2" stroke-linecap="round" stroke-linejoin="round"/><g fill="#D9E5F5" stroke="#D9E5F5" stroke-width="1.8"><circle cx="180" cy="360" r="3.5"/><circle cx="350" cy="360" r="3.5"/><circle cx="420" cy="280" r="3.5"/><circle cx="250" cy="280" r="3.5"/><circle cx="110" cy="210" r="3.5"/><circle cx="280" cy="210" r="3.5"/><circle cx="350" cy="130" r="3.5"/><circle cx="180" cy="130" r="3.5"/></g><circle cx="289.94" cy="278.74" r="3.5" fill="#A6B7CC" stroke="#A6B7CC" stroke-width="1.8"/><g font-family="Arial, Helvetica, sans-serif" text-anchor="middle" dominant-baseline="central" paint-order="stroke fill" stroke="#0F1729" stroke-width="2" stroke-linejoin="round"><g font-size="14" fill="#EAF1FA"><text x="155" y="382">A</text><text x="375" y="382">B</text><text x="442" y="295">C</text><text x="228" y="295">D</text><text x="82" y="202">A1</text><text x="280" y="185">B1</text><text x="372" y="112">C1</text><text x="180" y="105">D1</text><text x="314" y="273" fill="#A6B7CC">H</text></g><g font-size="12" fill="#EAF1FA"><text x="265" y="342">3</text><text x="236" y="314">√6</text></g></g></svg>