<svg xmlns="http://www.w3.org/2000/svg" width="600" height="500" viewBox="0 0 600 500"><rect x="0" y="0" width="600" height="500" fill="#0F1729"/><text x="300" y=" forty" fill="#EAF1FA" font-family="Arial, Helvetica, sans-serif" font-size="16" text-anchor="middle" dominant-baseline="central" paint-order="stroke fill" stroke="#0F1729" stroke-width="2" stroke-linejoin="round">Покрытие квадрата 9×9 без центральной клетки</text><g fill="#203957" stroke="#73B6E6" stroke-width="1.2"><rect x="165" y="95" width="30" height="60" rx="3"/><rect x="195" y="95" width="30" height="60" rx="3" fill="#284766"/><rect x="225" y="95" width="30" height="60" rx="3"/><rect x="255" y="95" width="30" height="60" rx="3" fill="#284766"/><rect x="285" y="95" width="30" height="60" rx="3"/><rect x="315" y="95" width="30" height="60" rx="3" fill="#284766"/><rect x="345" y="95" width="30" height="60" rx="3"/><rect x="375" y="95" width="30" height="60" rx="3" fill="#284766"/><rect x="405" y="95" width="30" height="60" rx="3"/><rect x="165" y="155" width="30" height="60" rx="3" fill="#284766"/><rect x="195" y="155" width="30" height="60" rx="3"/><rect x="225" y="155" width="30" height="60" rx="3" fill="#284766"/><rect x="255" y="155" width="30" height="60" rx="3"/><rect x="285" y="155" width="30" height="60" rx="3" fill="#284766"/><rect x="315" y="155" width="30" height="60" rx="3"/><rect x="345" y="155" width="30" height="60" rx="3" fill="#284766"/><rect x="375" y="155" width="30" height="60" rx="3"/><rect x="405" y="155" width="30" height="60" rx="3" fill="#284766"/><rect x="165" y="245" width="60" height="30" rx="3"/><rect x="225" y="245" width="60" height="30" rx="3" fill="#284766"/><rect x="345" y="245" width="60" height="30" rx="3"/><rect x="405" y="245" width="30" height="30" rx="3" fill="#284766"/><rect x="165" y="275" width="30" height="60" rx="3"/><rect x="195" y="275" width="30" height="60" rx="3" fill="#284766"/><rect x="225" y="275" width="30" height="60" rx="3"/><rect x="255" y="275" width="30" height="60" rx="3" fill="#284766"/><rect x="285" y="275" width="30" height="60" rx="3"/><rect x="315" y="275" width="30" height="60" rx="3" fill="#284766"/><rect x="345" y="275" width="30" height="60" rx="3"/><rect x="375" y="275" width="30" height="60" rx="3" fill="#284766"/><rect x="405" y="275" width="30" height="60" rx="3"/><rect x="165" y="335" width="30" height="60" rx="3" fill="#284766"/><rect x="195" y="335" width="30" height="60" rx="3"/><rect x="225" y="335" width="30" height="60" rx="3" fill="#284766"/><rect x="255" y="335" width="30" height="60" rx="3"/><rect x="285" y="335" width="30" height="60" rx="3" fill="#284766"/><rect x="315" y="335" width="30" height="60" rx="3"/><rect x="345" y="335" width="30" height="60" rx="3" fill="#284766"/><rect x="375" y="335" width="30" height="60" rx="3"/><rect x="405" y="335" width="30" height="60" rx="3" fill="#284766"/></g><rect x="165" y="215" width="270" height="30" fill="#203957" stroke="none"/><g fill="#203957" stroke="#73B6E6" stroke-width="1.2"><rect x="165" y="215" width="60" height="30" rx="3"/><rect x="225" y="215" width="60" height="30" rx="3" fill="#284766"/><rect x="345" y="215" width="60" height="30" rx="3"/><rect x="405" y="215" width="30" height="30" rx="3" fill="#284766"/></g><rect x="285" y="215" width="30" height="30" fill="#0F1729"/><g stroke="#A6B7CC" stroke-width="1.1" stroke-linecap="round"><line x1="195" y1="95" x2="195" y2="365"/><line x1="225" y1="95" x2="225" y2="365"/><line x1="255" y1="95" x2="255" y2="365"/><line x1="285" y1="95" x2="285" y2="365"/><line x1="315" y1="95" x2="315" y2="365"/><line x1="345" y1="95" x2="345" y2="365"/><line x1="375" y1="95" x2="375" y2="365"/><line x1="405" y1="95" x2="405" y2="365"/><line x1="165" y1="125" x2="435" y2="125"/><line x1="165" y1="155" x2="435" y2="155"/><line x1="165" y1="185" x2="435" y2="185"/><line x1="165" y1="215" x2="435" y2="215"/><line x1="165" y1="245" x2="435" y2="245"/><line x1="165" y1="275" x2="435" y2="275"/><line x1="165" y1="305" x2="435" y2="305"/><line x1="165" y1="335" x2="435" y2="335"/></g><rect x="165" y="95" width="270" height="270" fill="none" stroke="#D9E5F5" stroke-width="1.8" stroke-linecap="round"/><g stroke="#FFD166" stroke-width="1.8" stroke-linecap="round"><line x1="289" y1="219" x2="311" y2="241"/><line x1="311" y1="219" x2="289" y2="241"/></g><circle cx="300" cy="230" r="3.5" fill="#A6B7CC" stroke="#A6B7CC"/><text x="300" y="410" fill="#EAF1FA" font-family="Arial, Helvetica, sans-serif" font-size="14" text-anchor="middle" dominant-baseline="central" paint-order="stroke fill" stroke="#0F1729" stroke-width="2" stroke-linejoin="round">40 доминошек</text></svg>