<svg xmlns="http://www.w3.org/2000/svg" width="620" height="620" viewBox="0 0 620 620">
<style>text{font-family:system-ui,-apple-system,"Segoe UI",Arial,sans-serif}</style>
<rect width="620" height="620" fill="#070C18"/>
<polygon points="226.0,224.6 230.8,361.3 389.2,297.3" fill="none" stroke="#C8D6E5" stroke-width="2.3" stroke-linejoin="round"/>
<polygon points="226.0,224.6 230.8,361.3 346.7,288.8" fill="none" stroke="#C8D6E5" stroke-width="2.3" stroke-linejoin="round"/>
<polygon points="389.2,297.3 230.8,361.3 365.4,466.4" fill="none" stroke="#C8D6E5" stroke-width="2.3" stroke-linejoin="round"/>
<line x1="389.2" y1="297.3" x2="346.7" y2="288.8" stroke="#C8D6E5" stroke-width="2.3" stroke-linecap="round"/>
<line x1="226.0" y1="224.6" x2="365.4" y2="466.4" stroke="#C8D6E5" stroke-width="2.3" stroke-linecap="round"/>
<path d="M 229.9 335.3 A 26 26 0 0 1 254.9 351.5" fill="none" stroke="#8C9ABC" stroke-width="1.5"/>
<text x="253.1" y="331.9" fill="#8C9ABC" font-size="15" text-anchor="middle">60°</text>
<line x1="234.4" y1="292.7" x2="222.4" y2="293.2" stroke="#4C7DFF" stroke-width="2"/>
<line x1="285.6" y1="319.9" x2="292.0" y2="330.1" stroke="#4C7DFF" stroke-width="2"/>
<line x1="285.6" y1="319.9" x2="292.0" y2="330.1" stroke="#4C7DFF" stroke-width="2"/>
<line x1="289.2" y1="251.4" x2="283.6" y2="262.0" stroke="#4C7DFF" stroke-width="2"/>
<line x1="305.4" y1="324.6" x2="309.9" y2="335.8" stroke="#4C7DFF" stroke-width="2"/>
<line x1="310.1" y1="322.8" x2="314.6" y2="333.9" stroke="#4C7DFF" stroke-width="2"/>
<line x1="299.8" y1="407.6" x2="292.4" y2="417.0" stroke="#4C7DFF" stroke-width="2"/>
<line x1="303.8" y1="410.7" x2="296.4" y2="420.1" stroke="#4C7DFF" stroke-width="2"/>
<line x1="299.8" y1="407.6" x2="292.4" y2="417.0" stroke="#4C7DFF" stroke-width="2"/>
<line x1="303.8" y1="410.7" x2="296.4" y2="420.1" stroke="#4C7DFF" stroke-width="2"/>
<line x1="383.6" y1="380.2" x2="371.7" y2="378.5" stroke="#4C7DFF" stroke-width="2"/>
<line x1="382.9" y1="385.2" x2="371.0" y2="383.5" stroke="#4C7DFF" stroke-width="2"/>
<path d="M 239.2 247.4 A 26 26 0 0 1 277.7 275.1" fill="none" stroke="#8C9ABC" stroke-width="1.5"/>
<text x="276.1" y="241.7" fill="#8C9ABC" font-size="15" text-anchor="middle">120°</text>
<circle cx="226.0" cy="224.6" r="3.4" fill="#E6EBF7"/>
<text x="211.9" y="216.5" fill="#E6EBF7" font-size="19" font-style="italic" text-anchor="middle">A</text>
<circle cx="230.8" cy="361.3" r="3.4" fill="#E6EBF7"/>
<text x="213.5" y="377.3" fill="#E6EBF7" font-size="19" font-style="italic" text-anchor="middle">B</text>
<circle cx="389.2" cy="297.3" r="3.4" fill="#E6EBF7"/>
<text x="408.5" y="298.1" fill="#E6EBF7" font-size="19" font-style="italic" text-anchor="middle">C</text>
<circle cx="346.7" cy="288.8" r="3.4" fill="#E6EBF7"/>
<text x="356.7" y="277.5" fill="#E6EBF7" font-size="19" font-style="italic" text-anchor="middle">D</text>
<circle cx="365.4" cy="466.4" r="3.4" fill="#E6EBF7"/>
<text x="375.4" y="489.7" fill="#E6EBF7" font-size="19" font-style="italic" text-anchor="middle">E</text>
<circle cx="252.2" cy="270.0" r="3.4" fill="#E6EBF7"/>
<text x="272.2" y="276.0" fill="#E6EBF7" font-size="19" font-style="italic" text-anchor="middle">X</text>
</svg>